<?xml version="1.0" encoding="UTF-8"?>
<svg id="Layer_1" xmlns="http://www.w3.org/2000/svg" version="1.1" viewBox="0 0 512 512">
  <!-- Generator: Adobe Illustrator 29.1.0, SVG Export Plug-In . SVG Version: 2.1.0 Build 142)  -->
  <defs>
    <style>
      .st0 {
        fill: #174054;
      }
    </style>
  </defs>
  <path class="st0" d="M476.2,252.5h-50.8V21.8c0-3.3-2.7-6-6-6h-128.9c-3.3,0-6,2.7-6,6v16.6h-20.7v-17.4c0-3.3-2.7-6-6-6h-53.8c-3.3,0-6,2.7-6,6v17.4h-26.7c-3.3,0-6,2.7-6,6v36.5h-72.7c-3.3,0-6,2.7-6,6v165.5h-50.8c-11.5,0-20.8,9.3-20.8,20.8s9.3,20.8,20.8,20.8h11.3v21.9c0,7.8,5.3,14.4,12.9,16l36.7,7.9c1.6.3,2.7,1.3,3.2,2.8,2,5.8,4.4,11.5,7.1,17,.7,1.5.6,2.9-.3,4.3l-20.4,31.5c-4.2,6.5-3.3,15,2.2,20.5l39.5,39.5c5.5,5.5,13.9,6.4,20.5,2.2l31.5-20.4c1.4-.9,2.8-1,4.3-.3,5.5,2.7,11.2,5,17,7.1,1.5.5,2.5,1.6,2.8,3.2l7.9,36.7c1.6,7.6,8.2,12.9,16,12.9h55.9c7.8,0,14.4-5.3,16-12.9l7.9-36.7c.3-1.6,1.3-2.7,2.8-3.2,5.8-2,11.5-4.4,17-7.1,1.5-.7,2.9-.6,4.3.3l31.5,20.4c6.5,4.2,15,3.3,20.5-2.2l39.5-39.5c5.5-5.5,6.4-13.9,2.2-20.5l-20.4-31.5c-.9-1.4-1-2.8-.3-4.3,2.7-5.5,5-11.2,7.1-17,.5-1.5,1.6-2.5,3.2-2.8l36.7-7.9c7.6-1.6,12.9-8.2,12.9-16v-21.9h11.3c11.5,0,20.8-9.3,20.8-20.8,0-11.5-9.4-20.8-20.8-20.8h0ZM413.4,27.8v224.7h-52.4v-112.2c0-3.3-2.7-6-6-6h-58.4V27.8h116.9ZM227.5,146.3h121.4v106.2h-121.4v-106.2ZM210,27h41.8v11.4h-41.8v-11.4ZM177.4,50.4h107.1v83.8h-57v-12.5h25.5c3.3,0,6-2.7,6-6s-2.7-6-6-6h-25.5v-11.4h25.5c3.3,0,6-2.7,6-6s-2.7-6-6-6h-25.5c-.3-3-2.9-5.4-6-5.4h-44.1v-30.5ZM98.6,93h116.9v159.5h-33.6v-30.8c0-3.3-2.7-6-6-6h-37.6c-3.3,0-6,2.7-6,6v30.8h-33.6V93ZM169.8,252.5h-25.6v-24.8h25.6v24.8ZM452.8,316.1c0,2.1-1.4,3.8-3.5,4.3l-36.7,7.9c-5.7,1.2-10.1,5.1-12,10.6-1.9,5.3-4.1,10.6-6.5,15.8-2.5,5.3-2.2,11.1,1,16l20.4,31.5c1.1,1.8.9,4-.6,5.5l-39.5,39.5c-1.5,1.5-3.7,1.7-5.5.6l-31.5-20.4c-4.9-3.2-10.7-3.5-16-1-5.1,2.5-10.4,4.7-15.8,6.5-5.5,1.9-9.4,6.3-10.6,12l-7.9,36.7c-.4,2.1-2.2,3.5-4.3,3.5h-55.9c-2.1,0-3.8-1.4-4.3-3.5l-7.9-36.7c-1.2-5.7-5.1-10.1-10.6-12-5.3-1.9-10.6-4.1-15.8-6.5-5.3-2.5-11.1-2.2-16,1l-31.5,20.4c-1.8,1.1-4,.9-5.5-.6l-39.5-39.5c-1.5-1.5-1.7-3.7-.6-5.5l20.4-31.5c3.2-4.9,3.5-10.7,1-16-2.5-5.1-4.7-10.4-6.5-15.8-1.9-5.5-6.3-9.4-12-10.6l-36.7-7.9c-2.1-.4-3.5-2.2-3.5-4.3v-21.9h85.2c3.1,58.9,52,105.8,111.7,105.8s108.6-47,111.7-105.8h85.2v21.9h0ZM171.9,294.1c3.1,43.7,39.6,78.3,84.1,78.3s81-34.6,84.1-78.3h15.5c-3.1,52.3-46.6,93.8-99.6,93.8s-96.5-41.6-99.6-93.8h15.5ZM183.9,294.1h144.1c-3.1,37.1-34.2,66.3-72.1,66.3s-69-29.2-72.1-66.3h0ZM476.2,282.1H35.8c-4.9,0-8.8-4-8.8-8.8s4-8.8,8.8-8.8h440.4c4.9,0,8.8,4,8.8,8.8s-4,8.8-8.8,8.8ZM253,74.9h-44.1c-3.3,0-6-2.7-6-6s2.7-6,6-6h44.1c3.3,0,6,2.7,6,6s-2.7,6-6,6h0ZM128.8,106.3v8.4c0,3.3-2.7,6-6,6s-6-2.7-6-6v-8.4c0-3.3,2.7-6,6-6s6,2.7,6,6ZM151.9,114.7v-8.4c0-3.3,2.7-6,6-6s6,2.7,6,6v8.4c0,3.3-2.7,6-6,6s-6-2.7-6-6ZM187,114.7v-8.4c0-3.3,2.7-6,6-6s6,2.7,6,6v8.4c0,3.3-2.7,6-6,6s-6-2.7-6-6ZM128.8,135.5v8.4c0,3.3-2.7,6-6,6s-6-2.7-6-6v-8.4c0-3.3,2.7-6,6-6s6,2.7,6,6ZM151.9,143.9v-8.4c0-3.3,2.7-6,6-6s6,2.7,6,6v8.4c0,3.3-2.7,6-6,6s-6-2.7-6-6ZM187,143.9v-8.4c0-3.3,2.7-6,6-6s6,2.7,6,6v8.4c0,3.3-2.7,6-6,6s-6-2.7-6-6ZM128.8,164.8v8.4c0,3.3-2.7,6-6,6s-6-2.7-6-6v-8.4c0-3.3,2.7-6,6-6s6,2.7,6,6ZM151.9,173.2v-8.4c0-3.3,2.7-6,6-6s6,2.7,6,6v8.4c0,3.3-2.7,6-6,6s-6-2.7-6-6ZM187,173.2v-8.4c0-3.3,2.7-6,6-6s6,2.7,6,6v8.4c0,3.3-2.7,6-6,6s-6-2.7-6-6ZM128.8,194v8.4c0,3.3-2.7,6-6,6s-6-2.7-6-6v-8.4c0-3.3,2.7-6,6-6s6,2.7,6,6ZM151.9,202.4v-8.4c0-3.3,2.7-6,6-6s6,2.7,6,6v8.4c0,3.3-2.7,6-6,6s-6-2.7-6-6ZM187,202.4v-8.4c0-3.3,2.7-6,6-6s6,2.7,6,6v8.4c0,3.3-2.7,6-6,6s-6-2.7-6-6ZM313.7,56.7v-8.4c0-3.3,2.7-6,6-6s6,2.7,6,6v8.4c0,3.3-2.7,6-6,6s-6-2.7-6-6ZM348.9,56.7v-8.4c0-3.3,2.7-6,6-6s6,2.7,6,6v8.4c0,3.3-2.7,6-6,6s-6-2.7-6-6ZM384.1,56.7v-8.4c0-3.3,2.7-6,6-6s6,2.7,6,6v8.4c0,3.3-2.7,6-6,6s-6-2.7-6-6ZM313.7,85.9v-8.4c0-3.3,2.7-6,6-6s6,2.7,6,6v8.4c0,3.3-2.7,6-6,6s-6-2.7-6-6ZM348.9,85.9v-8.4c0-3.3,2.7-6,6-6s6,2.7,6,6v8.4c0,3.3-2.7,6-6,6s-6-2.7-6-6ZM384.1,85.9v-8.4c0-3.3,2.7-6,6-6s6,2.7,6,6v8.4c0,3.3-2.7,6-6,6s-6-2.7-6-6ZM313.7,115.1v-8.4c0-3.3,2.7-6,6-6s6,2.7,6,6v8.4c0,3.3-2.7,6-6,6s-6-2.7-6-6ZM348.9,115.1v-8.4c0-3.3,2.7-6,6-6s6,2.7,6,6v8.4c0,3.3-2.7,6-6,6s-6-2.7-6-6ZM384.1,115.1v-8.4c0-3.3,2.7-6,6-6s6,2.7,6,6v8.4c0,3.3-2.7,6-6,6s-6-2.7-6-6ZM384.1,144.4v-8.4c0-3.3,2.7-6,6-6s6,2.7,6,6v8.4c0,3.3-2.7,6-6,6s-6-2.7-6-6ZM384.1,173.6v-8.4c0-3.3,2.7-6,6-6s6,2.7,6,6v8.4c0,3.3-2.7,6-6,6s-6-2.7-6-6ZM384.1,202.8v-8.4c0-3.3,2.7-6,6-6s6,2.7,6,6v8.4c0,3.3-2.7,6-6,6s-6-2.7-6-6ZM384.1,232v-8.4c0-3.3,2.7-6,6-6s6,2.7,6,6v8.4c0,3.3-2.7,6-6,6s-6-2.7-6-6ZM279.6,167.4l-.2,64c0,3.3-2.7,6-6,6h0c-3.3,0-6-2.7-6-6l.2-64c0-3.3,2.7-6,6-6h0c3.3,0,6,2.7,6,6ZM250.9,167.4l-.2,64c0,3.3-2.7,6-6,6h0c-3.3,0-6-2.7-6-6l.2-64c0-3.3,2.7-6,6-6h0c3.3,0,6,2.7,6,6ZM308.3,167.4l.2,64c0,3.3-2.7,6-6,6h0c-3.3,0-6-2.7-6-6l-.2-64c0-3.3,2.7-6,6-6h0c3.3,0,6,2.7,6,6ZM337.7,231.4c0,3.3-2.7,6-6,6h0c-3.3,0-6-2.7-6-6l-.2-64c0-3.3,2.7-6,6-6h0c3.3,0,6,2.7,6,6l.2,64Z"/>
</svg>