<svg xmlns="http://www.w3.org/2000/svg" version="1.1" xmlns:xlink="http://www.w3.org/1999/xlink" width="512" height="512" x="0" y="0" viewBox="0 0 512 512" style="enable-background:new 0 0 512 512" xml:space="preserve" class=""><g><path d="m421.139 292.656 34.518-92.566c8.787-20.451 26.554-16.65 26.554-16.65 13.751 2.516 21.151 13.785 19.583 26.407L470.13 337.134c-8.178 32.702-30.976 64.591-57.518 85.2l-54.709 39.143v23.082c0 5.523-4.477 10-10 10h-91.748v-58.023s-5.979-66.08 56.808-104.241l75.059-48.178a22.846 22.846 0 0 1 12.386-3.644c5.933 0 11.81 2.301 16.244 6.734 8.787 8.799 8.968 23.012.395 32.025L366.5 359.097" style="stroke-width:20;stroke-linecap:round;stroke-linejoin:round;stroke-miterlimit:10;" fill="none" stroke="#174054" stroke-width="20" stroke-linecap="round" stroke-linejoin="round" stroke-miterlimit="10" data-original="#000000" opacity="1"></path><path d="m145.503 359.097-50.547-39.865c-8.573-9.013-8.393-23.226.395-32.025a22.944 22.944 0 0 1 16.244-6.734c4.275 0 8.584 1.196 12.386 3.644l75.059 48.178c62.786 38.161 56.808 104.241 56.808 104.241v58.023H164.1c-5.523 0-10-4.477-10-10v-23.082l-54.709-39.143c-26.543-20.609-49.34-52.498-57.518-85.2L10.207 209.847c-1.568-12.623 5.832-23.892 19.583-26.407 0 0 17.766-3.801 26.554 16.65l34.518 92.566M210.522 276.273h-12.659c-5.523 0-10-4.477-10-10v-53.616c0-21.697 17.589-39.285 39.285-39.285h57.704c21.697 0 39.285 17.589 39.285 39.285v53.616c0 5.523-4.477 10-10 10h-12.496" style="stroke-width:20;stroke-linecap:round;stroke-linejoin:round;stroke-miterlimit:10;" fill="none" stroke="#174054" stroke-width="20" stroke-linecap="round" stroke-linejoin="round" stroke-miterlimit="10" data-original="#000000" opacity="1"></path><circle cx="256" cy="127.003" r="46.369" style="stroke-width:20;stroke-linecap:round;stroke-linejoin:round;stroke-miterlimit:10;" fill="none" stroke="#174054" stroke-width="20" stroke-linecap="round" stroke-linejoin="round" stroke-miterlimit="10" data-original="#000000" opacity="1"></circle><path d="M303.737 110.181h59.965c21.697 0 39.285 17.589 39.285 39.285v52.955c0 5.886-4.772 10.657-10.657 10.657h-68.25" style="stroke-width:20;stroke-linecap:round;stroke-linejoin:round;stroke-miterlimit:10;" fill="none" stroke="#174054" stroke-width="20" stroke-linecap="round" stroke-linejoin="round" stroke-miterlimit="10" data-original="#000000" opacity="1"></path><circle cx="334.853" cy="63.81" r="46.369" style="stroke-width:20;stroke-linecap:round;stroke-linejoin:round;stroke-miterlimit:10;" fill="none" stroke="#174054" stroke-width="20" stroke-linecap="round" stroke-linejoin="round" stroke-miterlimit="10" data-original="#000000" opacity="1"></circle><path d="M187.92 213.078h-68.25c-5.886 0-10.657-4.771-10.657-10.657v-52.955c0-21.697 17.589-39.285 39.285-39.285h61.333" style="stroke-width:20;stroke-linecap:round;stroke-linejoin:round;stroke-miterlimit:10;" fill="none" stroke="#174054" stroke-width="20" stroke-linecap="round" stroke-linejoin="round" stroke-miterlimit="10" data-original="#000000" opacity="1"></path><circle cx="177.147" cy="63.81" r="46.369" style="stroke-width:20;stroke-linecap:round;stroke-linejoin:round;stroke-miterlimit:10;" fill="none" stroke="#174054" stroke-width="20" stroke-linecap="round" stroke-linejoin="round" stroke-miterlimit="10" data-original="#000000" opacity="1"></circle><path d="M256 276.273h0" style="stroke-width:20;stroke-linecap:round;stroke-linejoin:round;stroke-miterlimit:10;" fill="none" stroke="#174054" stroke-width="20" stroke-linecap="round" stroke-linejoin="round" stroke-miterlimit="10" data-original="#000000" opacity="1"></path></g></svg>