<svg xmlns="http://www.w3.org/2000/svg" version="1.1" xmlns:xlink="http://www.w3.org/1999/xlink" width="512" height="512" x="0" y="0" viewBox="0 0 512 512" style="enable-background:new 0 0 512 512" xml:space="preserve" class=""><g><path d="M275.133 96.209c25.423 0 46.105-20.683 46.105-46.104S300.555 4 275.133 4s-46.104 20.683-46.104 46.105 20.683 46.104 46.104 46.104zm0-78.209c17.703 0 32.105 14.402 32.105 32.105s-14.402 32.104-32.105 32.104-32.104-14.402-32.104-32.104S257.431 18 275.133 18zM123.534 354.443c6.574 0 12.978-3.41 16.495-9.5l28.568-49.482a20.541 20.541 0 0 0 3.943-3.616l12.053-14.397c2.893-3.456 4.054-7.803 3.269-12.244-.786-4.439-3.369-8.125-7.271-10.377l-27.455-15.851 1.817-3.147c1.923-3.33 2.431-7.219 1.431-10.953a14.426 14.426 0 0 0-2.724-5.349 34.222 34.222 0 0 0 3.93-5.847l32.465-60.71 16.167-.154-15.855 78.517c-2.693 13.339 1.254 29.626 13.145 37.971l5.039 50.533c.733 7.35-.778 13.335-4.758 18.837l-40.179 55.548c-11.229 15.522-6.088 30.875 3.44 38.57 4.636 3.744 10.662 5.993 17.014 5.993 7.429 0 15.304-3.076 21.92-10.431l46.502-51.693c11.825-13.145 17.817-29.14 17.81-47.541l-.015-36.399 48.104 15.941 4.162 59.836c1.058 15.199 13.438 23.096 25.199 23.095h.221c11.92-.1 24.413-8.268 25.226-23.685l3.472-65.806c1.708-32.396-17.005-40.54-36.816-49.161-2.239-.975-4.542-1.976-6.889-3.042a6.643 6.643 0 0 0-.51-.208l-46.755-16.948 9.052-43.357 11.71 13.888c10.348 12.271 24.289 18.753 40.329 18.752h.154l45.456-.121c11.533-.03 21.225-9.064 22.065-20.567l.173-2.366c.861-11.789-7.777-22.182-19.666-23.661l-41.79-5.2c-5.379-.668-9.514-3.192-12.288-7.501l-19.723-30.629c-11.49-17.845-27.85-29.092-48.624-33.429l-27.61-5.766c-8.679-1.812-16.471-2.121-25.263-1.001l-41.067 5.225c-18.288 2.327-32.671 13.075-39.459 29.489L112.1 191.907c-.335.81-.64 1.62-.914 2.428-6.273-1.901-13.273.67-16.689 6.587l-1.817 3.147-27.454-15.851c-3.904-2.254-8.389-2.647-12.622-1.109-4.239 1.539-7.426 4.72-8.971 8.954l-6.442 17.635a20.543 20.543 0 0 0-1.158 5.219l-28.57 49.486c-2.532 4.386-3.201 9.507-1.885 14.421s4.457 9.014 8.843 11.546l99.645 57.53a18.893 18.893 0 0 0 9.473 2.543zm132.763-25.318c.006 15.043-4.645 27.529-14.218 38.171l-46.502 51.693c-6.782 7.539-14.795 6.895-19.729 2.91-4.362-3.523-7.214-10.737-.894-19.474l40.179-55.548c5.937-8.208 8.408-17.774 7.346-28.431l-4.286-42.988 38.087 12.622zm72.823-158.937c5.056 7.85 12.778 12.627 22.332 13.815l41.789 5.199c4.485.558 7.749 4.401 7.432 8.748l-.173 2.366c-.315 4.314-3.813 7.576-8.139 7.587l-45.456.121h-.12c-11.947 0-21.915-4.635-29.624-13.778l-18.779-22.27 7.736-37.06a68.722 68.722 0 0 1 3.279 4.643zm-177.037-38.341c4.813-11.64 15.125-19.277 28.289-20.952l41.067-5.225c7.279-.924 13.45-.681 20.634.818l27.61 5.766c9.304 1.943 17.516 5.594 24.59 10.888L283.98 172.45v.001l-13.229 63.371a7 7 0 0 0 4.467 8.012l52.205 18.923c2.329 1.055 4.615 2.05 6.841 3.019 19.099 8.311 29.618 12.889 28.422 35.586l-3.472 65.806c-.402 7.626-6.372 10.381-11.362 10.423h-.114c-4.881 0-10.704-2.629-11.222-10.067l-4.488-64.518a7 7 0 0 0-4.781-6.159l-111.731-37.026c-9.751-3.231-13.468-15.615-11.428-25.72l17.565-86.984a6.998 6.998 0 0 0-6.861-8.386h-.066l-28.954.276a6.996 6.996 0 0 0-6.106 3.699l-34.422 64.37c-.958 1.792-2.072 3.311-3.32 4.554l-18.127-10.465c.28-1.266.685-2.571 1.238-3.908l27.049-65.41zm-45.465 76.074c.109-.189.412-.271.6-.162l35.45 20.467a.421.421 0 0 1 .191.269.425.425 0 0 1-.032.33l-1.817 3.148-36.208-20.905 1.817-3.147zm-56.28 10.58 6.443-17.638c.129-.355.241-.466.598-.596s.515-.116.844.074l115.368 66.607c.328.189.419.319.484.692.066.375.025.528-.218.82l-12.052 14.396c-2.127 2.539-6.066 3.104-9.164 1.316l-30.032-17.339c.608-1.865.671-3.869.15-5.812a10.172 10.172 0 0 0-4.77-6.223l-21.444-12.38a10.175 10.175 0 0 0-7.775-1.021 10.176 10.176 0 0 0-4.958 3.037L53.78 227.095c-3.099-1.789-4.579-5.483-3.442-8.594zm57.4 46.545-1.113 1.928-14.941-8.627 1.112-1.927zM19.096 279.2a4.968 4.968 0 0 1 .487-3.798l22.812-39.512a22.015 22.015 0 0 0 4.384 3.328l30.032 17.339a10.172 10.172 0 0 0-.15 5.813 10.174 10.174 0 0 0 4.77 6.222l21.445 12.382a10.167 10.167 0 0 0 7.774 1.021 10.182 10.182 0 0 0 4.96-3.037l30.032 17.339a22.012 22.012 0 0 0 5.074 2.133l-22.811 39.511a5.013 5.013 0 0 1-6.843 1.833l-99.645-57.53a4.97 4.97 0 0 1-2.32-3.045zm487.988 78.188a7 7 0 0 1-7 7h-98.775v40.871a7 7 0 0 1-7 7h-98.775v40.87a7 7 0 0 1-7 7h-98.775v40.87a7 7 0 0 1-7 7H76.983a7 7 0 1 1 0-14h98.775v-40.87a7 7 0 0 1 7-7h98.775v-40.87a7 7 0 0 1 7-7h98.775v-40.871a7 7 0 0 1 7-7h105.775a7 7 0 0 1 7 7z" fill="#174054" opacity="1" data-original="#000000"></path></g></svg>