<svg xmlns="http://www.w3.org/2000/svg" version="1.1" xmlns:xlink="http://www.w3.org/1999/xlink" width="512" height="512" x="0" y="0" viewBox="0 0 128 128" style="enable-background:new 0 0 512 512" xml:space="preserve"><g><path d="M82.475 67.87 71.76 66.313 66.968 56.6a3.311 3.311 0 0 0-5.936 0l-4.792 9.71-10.714 1.56a3.309 3.309 0 0 0-1.836 5.645l7.754 7.557-1.83 10.672a3.31 3.31 0 0 0 4.8 3.489L64 90.2l9.584 5.038a3.31 3.31 0 0 0 4.8-3.489l-1.83-10.672 7.754-7.557a3.31 3.31 0 0 0-1.835-5.645zM74.04 78.638a3.306 3.306 0 0 0-.951 2.927l1.782 10.391-9.33-4.9a3.3 3.3 0 0 0-3.081 0l-9.331 4.905 1.782-10.391a3.307 3.307 0 0 0-.952-2.928l-7.549-7.364 10.434-1.516a3.31 3.31 0 0 0 2.49-1.811L64 58.5l4.665 9.451a3.311 3.311 0 0 0 2.493 1.812l10.432 1.515z" fill="#174054" opacity="1" data-original="#000000"></path><path d="M101.03 26.82h-2.74v-3.39a6.185 6.185 0 0 0-12.37 0v3.39h-6.37v-3.39a6.18 6.18 0 1 0-12.36 0v3.39h-6.38v-3.39a6.18 6.18 0 0 0-12.36 0v3.39h-6.37v-3.39a6.185 6.185 0 0 0-12.37 0v3.39h-2.74a9.731 9.731 0 0 0-9.72 9.72v64.487a9.733 9.733 0 0 0 9.723 9.723h74.054a9.733 9.733 0 0 0 9.723-9.723V36.54a9.731 9.731 0 0 0-9.72-9.72zm-11.61-3.39a2.685 2.685 0 0 1 5.37 0v10.28a2.685 2.685 0 0 1-5.37 0zm-18.73 0a2.68 2.68 0 1 1 5.36 0v10.28a2.68 2.68 0 1 1-5.36 0zm-18.74 0a2.68 2.68 0 0 1 5.36 0v10.28a2.68 2.68 0 0 1-5.36 0zm-18.74 0a2.685 2.685 0 0 1 5.37 0v10.28a2.685 2.685 0 0 1-5.37 0zm-6.24 6.89h2.74v3.39a6.185 6.185 0 0 0 12.37 0v-3.39h6.37v3.39a6.18 6.18 0 0 0 12.36 0v-3.39h6.38v3.39a6.18 6.18 0 1 0 12.36 0v-3.39h6.37v3.39a6.185 6.185 0 0 0 12.37 0v-3.39h2.74a6.227 6.227 0 0 1 6.22 6.22v6.7h-86.5v-6.7a6.227 6.227 0 0 1 6.22-6.22zm74.057 76.93H26.973a6.229 6.229 0 0 1-6.223-6.223V46.74h86.5v54.287a6.23 6.23 0 0 1-6.223 6.223z" fill="#174054" opacity="1" data-original="#000000"></path></g></svg>