<svg xmlns="http://www.w3.org/2000/svg" version="1.1" xmlns:xlink="http://www.w3.org/1999/xlink" width="512" height="512" x="0" y="0" viewBox="0 0 512 512" style="enable-background:new 0 0 512 512" xml:space="preserve" class=""><g><path d="M196.069 263.953a7.498 7.498 0 0 0 6.425-3.632l13.531-22.475 17.93 28.492a7.498 7.498 0 0 0 12.857-.269l28.865-50.436 38.768 70.65a7.501 7.501 0 0 0 6.442 3.891l.133.001a7.501 7.501 0 0 0 6.443-3.662l24.153-40.546h58.242a7.5 7.5 0 0 0 0-15h-62.504a7.498 7.498 0 0 0-6.443 3.662l-19.624 32.942-38.897-70.886a7.502 7.502 0 0 0-6.508-3.892h-.068a7.5 7.5 0 0 0-6.509 3.774l-29.308 51.21-17.766-28.231a7.5 7.5 0 0 0-6.348-3.505h-.074a7.497 7.497 0 0 0-6.351 3.631l-17.628 29.281h-42.625a7.5 7.5 0 0 0 0 15zM423.096 55.795a7.5 7.5 0 0 0-7.5 7.5v22.124h-22.122a7.5 7.5 0 0 0 0 15h22.122v22.125a7.5 7.5 0 0 0 15 0v-22.125h22.122a7.5 7.5 0 0 0 0-15h-22.122V63.295a7.5 7.5 0 0 0-7.5-7.5z" fill="#174054" opacity="1" data-original="#000000"></path><path d="M449.56 312.76c36.539-39.063 47.011-98.132 26.926-148.772C498.039 147.744 512 121.933 512 92.919c0-49.025-39.882-88.909-88.904-88.909-20.137 0-39.856 6.911-55.526 19.46a7.5 7.5 0 0 0 9.376 11.708C390.154 24.6 406.112 19.01 423.095 19.01c40.75 0 73.904 33.156 73.904 73.909 0 40.77-33.153 73.938-73.904 73.938-37.943 0-69.286-28.738-73.448-65.589-.008-.085-.022-.171-.033-.257a74.327 74.327 0 0 1-.452-8.092c0-11.576 2.601-22.646 7.729-32.904a7.502 7.502 0 0 0-3.354-10.063 7.502 7.502 0 0 0-10.063 3.354c-6.179 12.359-9.312 25.687-9.312 39.612 0 1.26.033 2.512.085 3.76-18.938 6.769-36.615 17.902-51.429 32.471l-8.29 8.15-.11-.11-8.15-8.03c-26.37-26-60.89-40.53-94.72-39.83-28.15.58-53.06 11.61-72.03 31.89a7.506 7.506 0 0 0 .36 10.61c3.03 2.82 7.77 2.67 10.6-.36 16.14-17.26 37.36-26.65 61.38-27.14 29.8-.61 60.37 12.34 83.88 35.51l8.16 8.04c3.94 3.88 7.3 5.81 10.65 5.81 3.32 0 6.63-1.9 10.5-5.7l8.29-8.15c12.457-12.244 27.15-21.778 42.88-27.893 8.737 39.928 44.368 69.91 86.876 69.91 14.553 0 28.3-3.516 40.437-9.744 16.619 44.701 7.077 96.126-24.873 130.336L330.99 412.66l-8.91 1.74c-2.16.42-4.07.8-5.81 1.15-11.3 2.29-14 2.83-27.23.79l-64.15-11.73c-8.74-3.02-7.86-9.98-7.37-12.07.77-3.25 3.79-8.5 10.28-7.52l.18.03c2.89.37 5.99.77 9.23 1.18 12.15 1.57 25.91 3.34 38.13 4.59 25 2.53 39.14-10.59 42.08-24.73 2.99-14.41-5.22-33.57-30.32-41.58-.3-.09-.61-.17-.93-.23l-41.31-7.58c-22.42-4.11-39.86-.94-66.26 3.86-6.98 1.27-14.9 2.7-23.72 4.15l-19.58 3.22-6.03-6.17-18.85-19.3c-35.23-37.77-43.04-96.93-18.96-143.9 1.89-3.68.43-8.2-3.25-10.09-3.69-1.89-8.21-.44-10.1 3.25-26.92 52.52-18.12 118.74 21.41 161.04.04.04.08.08.11.12l17.6 18.02-32.778 5.388v-.856c0-5.791-5.109-10.502-11.389-10.502H11.36C5.096 324.93 0 329.641 0 335.432v131.965c0 5.791 5.096 10.502 11.36 10.502h61.704c6.28 0 11.389-4.711 11.389-10.502v-.909L151.9 484.84l62.26 16.92c14.21 4.41 25.66 6.23 36.11 6.23 16.54 0 30.59-4.54 49.15-10.54 1.65-.53 3.34-1.08 5.08-1.64l122.69-39.34c14.22-4.56 24.34-14.8 27.06-27.39 2.11-9.76-.83-19.4-7.87-25.79-5.7-5.17-19.1-12.59-44.93-4.42l-44.54 8.71 92.54-94.7c.04-.04.07-.08.11-.12zM15 462.899v-122.97h54.452v5.153l-.002.047v111.54l.002.026v6.204zm390.6-49.609c13.84-4.44 25.03-4.04 30.71 1.11 3.06 2.78 4.26 6.98 3.28 11.5-1.58 7.29-7.93 13.38-16.98 16.28l-122.7 39.35c-1.75.56-3.45 1.11-5.11 1.65-29.35 9.48-44.08 14.25-76.32 4.22-.08-.03-.17-.05-.26-.08L84.452 450.941V351.49l72.858-11.97c8.94-1.47 16.93-2.93 23.98-4.21 25.65-4.66 41.14-7.47 60.86-3.85l40.83 7.49c15.92 5.23 21.41 16.12 19.75 24.09-1.91 9.21-12.07 14.26-25.87 12.86-12.02-1.23-25.68-2.99-37.73-4.54-3.22-.42-6.31-.82-9.18-1.18-14.34-2.12-24.45 7.91-27.03 18.94-.55 2.35-.77 4.85-.61 7.37.55 9.12 6 18.58 18.44 22.55.31.1 4.45.87 4.45.87l61.25 11.2.2.03c12.64 1.97 18.11 1.8 25.86.43 2.03-.36 10.31-2.04 12.44-2.45l13.5-2.64s66.87-13.1 67.15-13.19z" fill="#174054" opacity="1" data-original="#000000"></path></g></svg>