<svg xmlns="http://www.w3.org/2000/svg" version="1.1" xmlns:xlink="http://www.w3.org/1999/xlink" width="512" height="512" x="0" y="0" viewBox="0 0 512 512" style="enable-background:new 0 0 512 512" xml:space="preserve" class=""><g><path d="M213.896 279.974h77.726a7 7 0 0 0 7-7V240.57a7 7 0 0 0-7-7h-77.726a7 7 0 0 0-7 7v32.404a7 7 0 0 0 7 7zm7-32.404h63.726v18.404h-63.726zm166.348 192.516h35.807a7 7 0 0 0 7-7v-41.944a7 7 0 0 0-7-7h-35.807a7 7 0 0 0-7 7v41.944a7 7 0 0 0 7 7zm7-41.944h21.807v27.944h-21.807zm-275.038-11.993h22.183a7 7 0 0 0 7-7V320.92a7 7 0 0 0-7-7h-22.183a7 7 0 0 0-7 7v58.229a7 7 0 0 0 7 7zm7-58.229h8.183v44.229h-8.183zM501 458.366h-18.106v-99.503a7 7 0 0 0-7-7H456.4l-9.472-144.808c5.617-1.649 9.733-6.841 9.733-12.984v-21.965c0-7.465-6.073-13.538-13.539-13.538H380.57c-7.465 0-13.539 6.073-13.539 13.538v21.965c0 6.143 4.116 11.335 9.733 12.985l-9.473 144.807H341.4V195.604a7.003 7.003 0 0 0-7-7h-17.012v-26.045a7 7 0 0 0-7-7H243.31l3.331-8.04 10.215-2.014c5.511-1.085 9.511-5.951 9.511-11.569v-25.745c0-5.617-4-10.482-9.511-11.568l-10.215-2.014-7.141-17.235 5.8-8.65c3.128-4.665 2.516-10.934-1.456-14.905l-18.205-18.204c-3.972-3.972-10.241-4.583-14.905-1.455l-8.649 5.8-17.235-7.141-2.014-10.216c-1.086-5.511-5.952-9.511-11.569-9.511h-25.745c-5.617 0-10.482 4-11.569 9.511l-2.014 10.216-17.236 7.141-8.649-5.8c-4.664-3.128-10.934-2.515-14.904 1.456L72.945 53.82c-3.971 3.971-4.583 10.24-1.455 14.905l5.8 8.649-7.141 17.235-10.214 2.014c-5.511 1.086-9.512 5.952-9.512 11.568v25.745c0 5.618 4 10.484 9.511 11.569l10.215 2.014 7.141 17.235-5.8 8.65c-3.128 4.666-2.516 10.934 1.456 14.904l18.204 18.204c3.971 3.972 10.24 4.585 14.905 1.456l8.649-5.8 17.235 7.141 2.014 10.216c1.086 5.511 5.952 9.511 11.569 9.511h18.594v1.033L86.742 262.88a6.999 6.999 0 0 0-4.267 6.444v34.606H34.513a7 7 0 0 0-7 7v147.437H11a7 7 0 0 0-7 7v26.544a7 7 0 0 0 7 7h490a7 7 0 0 0 7-7v-26.544a7 7 0 0 0-7-7zM381.03 172.568h61.629v21.042H381.03zm9.726 35.042h42.177l9.436 144.253H381.32zm78.137 158.253v92.503H341.399v-92.503zm-141.494 92.503h-34.976v-78.084c0-11.824-9.62-21.444-21.445-21.444h-36.443c-11.824 0-21.444 9.62-21.444 21.444v78.084h-34.976V202.605h149.283v255.761zm-48.976 0h-51.332v-78.084c0-4.104 3.339-7.444 7.444-7.444h36.443c4.105 0 7.445 3.339 7.445 7.444zM158.394 165.845c-24.692 0-44.781-20.089-44.781-44.781s20.089-44.782 44.781-44.782 44.781 20.089 44.781 44.782-20.088 44.781-44.781 44.781zm144.993 22.759H202.129v-19.046h101.258zm-156.05 26.431-2.388-12.113a7.001 7.001 0 0 0-4.188-5.113l-24.163-10.01a7 7 0 0 0-6.578.653l-10.256 6.877-15.637-15.637 6.877-10.255a7.003 7.003 0 0 0 .653-6.578l-10.01-24.163a6.997 6.997 0 0 0-5.113-4.188l-12.112-2.388v-22.114l12.112-2.388a7.001 7.001 0 0 0 5.113-4.188l10.01-24.163a7.003 7.003 0 0 0-.653-6.578l-6.877-10.256 15.637-15.637 10.255 6.877a7 7 0 0 0 6.578.653l24.163-10.011a6.997 6.997 0 0 0 4.188-5.113l2.388-12.112h22.114l2.388 12.112a7.003 7.003 0 0 0 4.188 5.113l24.163 10.011a7.006 7.006 0 0 0 6.578-.653l10.255-6.877 15.637 15.637-6.877 10.256a7.003 7.003 0 0 0-.653 6.578l10.01 24.163a6.997 6.997 0 0 0 5.113 4.188l12.112 2.388v22.114l-12.112 2.388a7.003 7.003 0 0 0-5.113 4.188l-6.986 16.861h-22.209c7.053-9.696 11.229-21.614 11.229-34.495 0-32.412-26.369-58.782-58.781-58.782s-58.781 26.37-58.781 58.782 26.369 58.781 58.781 58.781a58.407 58.407 0 0 0 29.734-8.106v16.866h-17.013a7 7 0 0 0-7 7v19.43h-16.779zm16.779 30.239v213.091H96.475V273.957zM41.513 317.928h40.962v140.437H41.513zm452.486 166.981H18v-12.544h476v12.544z" fill="#174054" opacity="1" data-original="#000000"></path></g></svg>