<svg xmlns="http://www.w3.org/2000/svg" version="1.1" xmlns:xlink="http://www.w3.org/1999/xlink" width="512" height="512" x="0" y="0" viewBox="0 0 512 512" style="enable-background:new 0 0 512 512" xml:space="preserve" class=""><g><path d="M211.622 60.574a7 7 0 0 1 5.574-8.181c25.552-4.841 52.195-4.825 77.606-.01a7 7 0 1 1-2.606 13.755c-23.697-4.491-48.558-4.508-72.394.01a7.003 7.003 0 0 1-8.182-5.574zm239.814 239.803a7.003 7.003 0 0 0 8.181-5.574 208.706 208.706 0 0 0-.01-77.607 7 7 0 0 0-13.756 2.607c2.255 11.901 3.398 24.08 3.398 36.197s-1.14 24.331-3.389 36.197a7.001 7.001 0 0 0 5.575 8.181zm-159.24 145.474c-23.829 4.517-48.686 4.501-72.394.01a7 7 0 1 0-2.606 13.755c12.727 2.411 25.781 3.633 38.803 3.633s26.046-1.226 38.804-3.644a7 7 0 1 0-2.608-13.755zM60.563 211.622a7.003 7.003 0 0 0-8.181 5.575 208.779 208.779 0 0 0 .011 77.606 7.003 7.003 0 0 0 8.181 5.574 7 7 0 0 0 5.575-8.181c-2.256-11.905-3.399-24.083-3.399-36.197s1.14-24.325 3.389-36.197a7 7 0 0 0-5.575-8.18zM505.99 367.301c-4.091 7.751-14.72 12.971-26.362 7.379l-42.004-20.727c-1.217-.601-2.219-.835-3.577-.835h-30.174c-2.284 0-4.101.752-5.717 2.368l-13.953 13.954c6.717-3.193 14.72-4.156 23.133-2.614 16.317 2.991 30.849 15.14 35.337 29.544 3.911 12.55.222 25.305-10.389 35.915-7.838 7.839-16.875 11.904-26.129 11.904-3.078 0-6.181-.45-9.271-1.36-14.322-4.219-26.292-17.931-29.784-34.122-1.916-8.882-1.046-17.392 2.335-24.498l-13.948 13.948c-1.616 1.615-2.368 3.431-2.368 5.716v30.174c0 1.357.233 2.36.835 3.577l20.694 41.936c5.624 11.709.403 22.339-7.347 26.43-2.383 1.258-5.153 1.972-8.068 1.973-6.543 0-13.821-3.597-19.128-12.73l-24.352-39.644c-3.12-5.08-4.745-10.464-5.107-16.927l-4.944-43.533a6.284 6.284 0 0 1-.035-.432c-.201-3.915-1.585-7.029-4.356-9.8l-28.013-28.014a102.63 102.63 0 0 1-34.594 0l-28.014 28.013c-2.771 2.771-4.155 5.886-4.356 9.801a6.982 6.982 0 0 1-.035.432l-4.944 43.533c-.362 6.464-1.987 11.849-5.106 16.927l-24.351 39.642c-5.306 9.134-12.586 12.732-19.129 12.732-2.916 0-5.686-.715-8.069-1.973-7.75-4.091-12.97-14.721-7.378-26.363l20.727-42.002c.601-1.216.834-2.218.834-3.577v-30.174c0-2.285-.752-4.101-2.367-5.716l-13.955-13.955c3.193 6.717 4.157 14.72 2.615 23.133-2.99 16.318-15.139 30.849-29.543 35.338-3.267 1.018-6.548 1.521-9.802 1.521-9.244 0-18.266-4.062-26.113-11.909-10.447-10.447-14.191-23.02-10.544-35.402 4.219-14.322 17.932-26.291 34.122-29.783 8.882-1.916 17.393-1.046 24.498 2.335l-13.948-13.948c-1.615-1.616-3.432-2.368-5.717-2.368H77.955c-1.357 0-2.36.234-3.577.834l-41.936 20.695c-11.706 5.624-22.338.403-26.43-7.347-4.08-7.729-2.445-19.523 10.756-27.195l39.645-24.352c5.08-3.121 10.465-4.747 16.929-5.107l43.532-4.945c.144-.017.288-.028.433-.036 3.914-.2 7.027-1.584 9.8-4.356l28.013-28.014a102.633 102.633 0 0 1 0-34.595l-28.013-28.013c-2.772-2.771-5.886-4.156-9.8-4.356a6.264 6.264 0 0 1-.433-.036l-43.532-4.945c-6.463-.361-11.848-1.986-16.929-5.107L16.77 171.894c-13.204-7.671-14.838-19.467-10.758-27.196 4.091-7.751 14.72-12.971 26.362-7.379l42.003 20.727c1.217.601 2.22.835 3.578.835h30.174c2.284 0 4.101-.752 5.715-2.367l13.939-13.939c-4.602 2.183-9.805 3.322-15.332 3.322-2.536 0-5.141-.238-7.784-.723-16.317-2.991-30.849-15.139-35.338-29.543-3.91-12.55-.222-25.305 10.389-35.915 10.447-10.447 23.021-14.189 35.4-10.544 14.322 4.219 26.292 17.931 29.785 34.122 1.916 8.882 1.046 17.392-2.335 24.497l13.947-13.947c1.617-1.616 2.369-3.432 2.369-5.716V77.955c0-1.359-.234-2.362-.834-3.577l-20.695-41.937c-5.624-11.708-.404-22.338 7.346-26.429 7.73-4.079 19.526-2.446 27.197 10.758l24.352 39.642c3.12 5.081 4.746 10.466 5.106 16.929l4.944 43.532c.017.144.028.288.035.432.201 3.915 1.585 7.029 4.356 9.8l28.014 28.013a102.541 102.541 0 0 1 34.595 0l28.013-28.013c2.771-2.772 4.155-5.886 4.354-9.799.008-.145.02-.289.036-.433l4.945-43.533c.36-6.462 1.986-11.847 5.106-16.928l24.352-39.642c7.671-13.204 19.464-14.838 27.196-10.759 7.75 4.091 12.971 14.721 7.379 26.362l-20.727 42.003c-.602 1.217-.835 2.22-.835 3.577v30.174c0 2.285.752 4.101 2.367 5.715l13.954 13.954c-3.192-6.717-4.156-14.72-2.614-23.133 2.99-16.317 15.139-30.849 29.543-35.337 12.55-3.908 25.306-.221 35.914 10.388 10.447 10.447 14.192 23.019 10.545 35.401-4.219 14.323-17.932 26.292-34.122 29.784a43.45 43.45 0 0 1-9.162 1.002c-5.518 0-10.722-1.141-15.335-3.337l13.948 13.948c1.615 1.616 3.432 2.368 5.716 2.368h30.175c1.357 0 2.36-.234 3.577-.834l41.936-20.694c11.71-5.624 22.339-.403 26.43 7.347 4.08 7.729 2.445 19.525-10.758 27.196l-39.643 24.351c-5.079 3.121-10.465 4.746-16.93 5.107l-43.532 4.944a6.922 6.922 0 0 1-.432.036c-3.914.201-7.028 1.585-9.799 4.356l-28.014 28.013a102.642 102.642 0 0 1 0 34.595l28.012 28.012c2.772 2.771 5.886 4.156 9.8 4.356.145.007.289.019.433.036l43.532 4.945c6.464.361 11.85 1.987 16.93 5.107l39.643 24.351c13.204 7.671 14.838 19.467 10.758 27.196zM385.597 126.734c4.736 4.59 12.088 6.222 20.157 4.481 11.152-2.406 20.875-10.653 23.645-20.055 2.194-7.449-.166-14.698-7.014-21.546-5.197-5.197-10.622-7.81-16.188-7.81-1.873 0-3.762.296-5.663.888-9.494 2.958-17.879 13.26-19.938 24.496-1.475 8.049.301 14.991 5.001 19.546zm-258.863-.332c4.59-4.735 6.224-12.083 4.481-20.158-2.405-11.151-10.653-20.874-20.056-23.644a18.89 18.89 0 0 0-5.354-.793c-5.57 0-10.996 2.612-16.192 7.808-6.945 6.946-9.274 14.298-6.921 21.851 2.958 9.494 13.26 17.879 24.495 19.938 8.052 1.476 14.99-.301 19.546-5.001zm4.67 278.409c1.475-8.049-.302-14.991-5.002-19.547-3.493-3.385-8.407-5.162-13.986-5.162-1.984 0-4.052.225-6.17.682-11.152 2.406-20.875 10.652-23.646 20.055-2.194 7.449.166 14.698 7.015 21.546 6.946 6.947 14.301 9.275 21.851 6.921 9.494-2.958 17.879-13.26 19.938-24.495zm253.861-19.214c-4.59 4.735-6.223 12.082-4.48 20.157 2.405 11.152 10.652 20.875 20.055 23.645 7.449 2.194 14.698-.166 21.545-7.014 6.947-6.946 9.275-14.298 6.923-21.851-2.959-9.494-13.261-17.879-24.495-19.938a29.689 29.689 0 0 0-5.352-.506c-5.759 0-10.686 1.885-14.195 5.507zm-41.19-136.598c-1.649-20.935-10.627-39.841-24.362-54.147a102.21 102.21 0 0 1-14.377 9.589c4.333 13.142 7.03 28.264 7.633 44.558zm-81.076-46.149a88.189 88.189 0 0 0 24.498-5.517c-6.401-13.943-14.976-23.796-24.498-27.088zm-38.496-5.519a87.183 87.183 0 0 0 24.496 5.525v-32.611c-9.521 3.293-18.095 13.145-24.496 27.085zm-11.458 51.668h35.954v-32.106a101.034 101.034 0 0 1-29.479-6.486c-3.586 11.456-5.892 24.616-6.474 38.592zm0 14c.582 13.973 2.887 27.131 6.472 38.586a102.182 102.182 0 0 1 29.481-6.474v-32.112h-35.954zm11.457 51.666c6.401 13.942 14.976 23.795 24.497 27.088v-32.605a88.182 88.182 0 0 0-24.497 5.517zm62.995 0a88.189 88.189 0 0 0-24.498-5.517v32.605c9.522-3.292 18.097-13.146 24.498-27.088zm4.984-13.081c3.585-11.455 5.89-24.613 6.472-38.586h-35.955v32.112a102.18 102.18 0 0 1 29.482 6.474zm6.472-52.586c-.582-13.973-2.887-27.131-6.472-38.586a102.188 102.188 0 0 1-29.482 6.474v32.111h35.955zm10.112-63.595a88.348 88.348 0 0 0-18.963-10.907c3.737 4.85 7.114 10.492 10.058 16.803a88.233 88.233 0 0 0 8.906-5.896zm-87.168-10.907c-29.788 12.51-51.326 40.891-53.973 74.503h31.106c1.143-30.876 9.803-57.547 22.867-74.503zm-53.973 88.503c1.649 20.935 10.627 39.841 24.362 54.147a102.21 102.21 0 0 1 14.377-9.589c-4.333-13.142-7.03-28.264-7.633-44.558zm35.01 63.595a88.39 88.39 0 0 0 18.963 10.907c-3.736-4.85-7.114-10.492-10.058-16.803a88.107 88.107 0 0 0-8.905 5.896zm87.168 10.907a88.39 88.39 0 0 0 18.963-10.907 88.29 88.29 0 0 0-8.906-5.896c-2.943 6.311-6.321 11.953-10.057 16.803zm53.972-74.502h-31.106c-.603 16.294-3.3 31.415-7.633 44.558a102.21 102.21 0 0 1 14.377 9.589c13.735-14.306 22.713-33.211 24.362-54.147zm-54.998-103.865c29.874 10.229 53.558 33.914 63.787 63.788l22.133-22.132c5.166-5.167 11.475-8.001 18.753-8.426l43.536-4.945c.144-.017.288-.028.433-.036 4.244-.217 7.396-1.134 10.542-3.067l39.72-24.398.164-.098c4.654-2.687 6.799-6.058 5.464-8.587-1.034-1.959-3.954-3.201-7.921-1.294l-41.868 20.662c-3.152 1.556-6.257 2.28-9.772 2.28h-30.175c-5.984 0-11.384-2.237-15.615-6.469l-42.67-42.67c-4.231-4.231-6.469-9.63-6.469-15.615V77.953c0-3.517.725-6.623 2.281-9.774l20.693-41.934c1.873-3.9.632-6.819-1.327-7.854-2.527-1.333-5.899.809-8.587 5.464a7.087 7.087 0 0 1-.098.164l-24.398 39.719c-1.933 3.147-2.851 6.299-3.066 10.542-.008.145-.02.289-.036.433l-4.945 43.536c-.424 7.277-3.258 13.586-8.425 18.754l-22.133 22.132zm-129.942 63.787c10.229-29.874 33.913-53.557 63.787-63.787l-22.132-22.132c-5.168-5.167-8.002-11.476-8.427-18.754l-4.944-43.537a6.262 6.262 0 0 1-.035-.433c-.217-4.242-1.135-7.395-3.067-10.542l-24.398-39.719a6.441 6.441 0 0 1-.097-.164c-2.688-4.654-6.055-6.797-8.589-5.464-1.959 1.034-3.199 3.954-1.294 7.92L170.6 68.178c1.555 3.149 2.279 6.255 2.279 9.773v30.174c0 5.984-2.236 11.384-6.469 15.616l-42.67 42.67c-4.23 4.231-9.63 6.468-15.614 6.468H77.951c-3.518 0-6.623-.726-9.773-2.281l-41.935-20.693c-3.898-1.873-6.82-.633-7.854 1.327-1.335 2.529.81 5.9 5.464 8.587l.164.098 39.72 24.398c3.146 1.933 6.299 2.85 10.541 3.066.145.007.289.019.433.036l43.537 4.945c7.276.424 13.585 3.258 18.753 8.425l22.133 22.133zm63.788 129.942c-29.874-10.229-53.558-33.914-63.788-63.787l-22.132 22.133c-5.169 5.167-11.478 8.001-18.754 8.425l-43.537 4.945a6.954 6.954 0 0 1-.433.036c-4.242.217-7.395 1.134-10.541 3.067l-39.72 24.398-.164.098c-4.654 2.687-6.799 6.058-5.464 8.587 1.033 1.958 3.952 3.199 7.921 1.294l41.868-20.662c3.151-1.555 6.257-2.28 9.772-2.28h30.174c5.985 0 11.386 2.237 15.616 6.469l42.669 42.669c4.231 4.231 6.469 9.631 6.469 15.616v30.174c0 3.518-.725 6.623-2.28 9.773l-20.693 41.935c-1.873 3.9-.633 6.82 1.326 7.854 2.529 1.334 5.9-.81 8.589-5.464.031-.055.063-.109.097-.164l24.398-39.72c1.933-3.145 2.85-6.298 3.067-10.542.007-.144.019-.288.035-.432l4.944-43.537c.425-7.278 3.259-13.587 8.427-18.754l22.132-22.132zm265.222-.685a7.087 7.087 0 0 1-.164-.098l-39.72-24.398c-3.146-1.933-6.299-2.85-10.542-3.067a6.264 6.264 0 0 1-.433-.036l-43.536-4.945c-7.277-.424-13.587-3.258-18.754-8.425l-22.132-22.132c-10.229 29.874-33.914 53.558-63.788 63.787l22.132 22.132c5.168 5.167 8.002 11.476 8.427 18.754l4.944 43.537c.017.144.028.288.035.432.218 4.243 1.136 7.396 3.068 10.542l24.398 39.72.098.164c2.688 4.655 6.06 6.798 8.587 5.464 1.959-1.034 3.2-3.954 1.295-7.921l-20.662-41.868c-1.556-3.152-2.28-6.257-2.28-9.773v-30.174c0-5.985 2.237-11.384 6.469-15.616l42.67-42.67c4.231-4.231 9.631-6.468 15.615-6.468h30.175c3.519 0 6.624.726 9.773 2.282l41.935 20.693c3.897 1.871 6.819.632 7.854-1.327 1.335-2.529-.81-5.9-5.464-8.587z" fill="#174054" opacity="1" data-original="#000000" class=""></path></g></svg>