<?xml version="1.0" encoding="utf-8"?>
<!-- Generator: Adobe Illustrator 21.1.0, SVG Export Plug-In . SVG Version: 6.00 Build 0)  -->
<svg version="1.1" id="modot_logo_primary_layer"
	xmlns="http://www.w3.org/2000/svg"
	xmlns:xlink="http://www.w3.org/1999/xlink" x="0px" y="0px" viewBox="0 0 339.446 175.805" style="enable-background:new 0 0 339.446 175.805;" xml:space="preserve">
	<style type="text/css">
	.st0{fill:#005990;}
	.st1{fill:#262223;}
	</style>
	<g>
		<path class="st0" d="M189.238,142.34c3.808,0.647,7.542,1.657,11.369,2.221c3.82,0.563,7.641,1.09,11.474,1.565
		c6.401,0.793,12.814,0.779,19.237,0.779c6.526,0,12.972-0.813,19.374-1.978c9.097-1.656,17.761-4.596,25.921-8.971
		c6.814-3.653,12.842-8.323,18.112-13.985c3.751-4.029,6.874-8.498,9.563-13.288c4.706-8.381,7.487-17.426,9.304-26.811
		c0.5-2.586,0.535-2.582,2.742-1.156c5.009,3.234,9.989,6.515,14.99,9.757c2.164,1.403,2.368,2.94,2.013,5.106
		c-1.92,11.718-6.911,22.002-14.265,31.251c-6.586,8.283-14.526,15.006-23.522,20.458c-10.805,6.548-22.464,11.007-34.885,13.399
		c-4.713,0.908-9.449,1.609-14.256,1.901c-3.176,0.193-6.364,0.522-9.53,0.444c-9.679-0.238-19.281-1.237-28.731-3.494
		c-8.037-1.919-15.852-4.488-23.488-7.628c-0.269-0.11-0.571-0.139-0.858-0.206c-1.225-0.988-2.515-1.859-4.064-2.264
		c-3.586-1.019-6.734-2.993-9.959-4.745c-5.685-3.089-11.179-6.507-16.491-10.219c-5.374-3.755-10.514-7.804-15.615-11.915
		c-1.911-1.54-4.407-1.674-6.7-2.172c-7.843-1.706-14.526,0.408-20.067,6.255c-1.887,1.991-3.819,3.93-5.396,6.184
		c-0.697,0.997-1.266,1.046-2.244,0.189c-3.32-2.911-6.724-5.729-10.148-8.519c-0.566-0.461-0.645-0.726-0.247-1.28
		c4.607-6.411,10.163-11.538,18.371-12.552c4.815-0.595,9.468,0.411,13.962,2.341c4.808,2.065,8.896,5.193,13.16,8.119
		c6.119,4.2,12.749,7.522,19.546,10.534c6.647,2.946,13.449,5.432,20.378,7.591c2.212,0.689,4.398,1.511,6.727,1.767
		C186.295,141.874,187.736,142.205,189.238,142.34z"/>
		<path class="st0" d="M187.632,130.129c7.684,1.214,15.417,1.846,23.193,1.609c13.532-0.412,26.516-3.132,38.491-9.712
		c4.627-2.543,8.833-5.67,12.734-9.273c6.692-6.179,11.696-13.52,15.604-21.664c1.573-3.278,2.94-6.653,3.997-10.138
		c0.333-1.098,0.748-1.349,1.785-0.739c4.084,2.399,7.914,5.177,11.819,7.841c2.71,1.848,5.338,3.815,8.044,5.67
		c0.946,0.648,1.05,1.233,0.586,2.301c-2.816,6.484-6.335,12.532-10.879,17.961c-4.109,4.91-8.746,9.255-13.928,13.024
		c-7.721,5.616-16.195,9.71-25.288,12.542c-5.589,1.74-11.308,2.853-17.113,3.653c-6.45,0.889-12.919,0.884-19.385,0.715
		c-4.002-0.105-8.002-0.583-11.98-1.17c-4.654-0.687-9.261-1.569-13.822-2.715c-0.326-0.082-0.695,0.005-1.045,0.013
		c-1.28-0.809-2.754-1.058-4.18-1.443c-6.579-1.636-12.884-4.07-19.139-6.63c-5.12-2.095-10.141-4.42-15.058-6.963
		c-8.893-4.598-17.417-9.81-25.719-15.395c-2.782-1.871-5.966-2.676-9.236-3.035c-9.298-1.021-16.912,2.738-23.821,8.502
		c-4.29,3.579-7.671,7.929-10.81,12.486c-0.698,1.014-1.076,1.231-2.145,0.364c-3.237-2.626-6.615-5.076-9.678-7.919
		c-0.654-0.607-0.778-1.045-0.268-1.873c3.612-5.871,8.221-10.719,14.3-14.053c10.658-5.845,21.525-5.596,32.582-1.147
		c4.489,1.807,8.243,4.833,12.458,7.086c5.28,2.821,10.653,5.433,16.15,7.801c5.622,2.422,11.349,4.563,17.184,6.408
		c6.14,1.941,12.362,3.578,18.687,4.81c0.224,0.044,0.477-0.059,0.716-0.094C184.167,129.444,185.801,130.218,187.632,130.129z"/>
		<path class="st0" d="M180.524,124.417c-4.462-0.451-8.776-1.631-13.08-2.788c-10.244-2.754-20.172-6.407-29.857-10.74
		c-9.704-4.342-19.087-9.285-28.265-14.641c-1.912-1.116-4.147-1.367-6.299-1.539c-6.019-0.481-11.789,0.612-17.277,3.155
		c-5.865,2.718-11.014,6.456-15.336,11.235c-6.176,6.83-10.577,14.674-12.766,23.672c-0.318,1.306-0.638,1.521-1.878,0.765
		c-3.866-2.356-7.811-4.583-11.765-6.789c-0.791-0.441-0.867-0.829-0.578-1.609c2.217-5.981,5.242-11.518,9.174-16.534
		c5.139-6.556,11.291-11.934,18.854-15.541c4.227-2.016,8.68-3.243,13.38-3.741c10.055-1.065,18.996,1.861,27.495,6.958
		c2.573,1.543,5.516,2.493,8.336,3.593c8.881,3.464,17.942,6.391,27.223,8.567c5.826,1.366,11.706,2.478,17.66,3.218
		c3.293,0.409,6.598,0.696,9.888,1.115c1.642,0.341,3.281,0.719,4.973,0.347c2.991-0.327,5.991-0.08,8.987-0.148
		c14.187-0.323,27.89-2.856,40.865-8.818c7.364-3.383,13.959-7.846,19.425-13.852c2.96-3.252,5.356-6.913,6.981-11.036
		c0.628-1.595,0.959-1.707,2.338-0.629c4.65,3.636,9.277,7.303,13.92,10.949c0.758,0.595,0.868,1.205,0.362,2.064
		c-2.001,3.391-4.292,6.568-6.866,9.543c-5.294,6.116-11.613,10.947-18.628,14.92c-5.483,3.106-11.287,5.45-17.333,7.145
		c-6.598,1.85-13.327,2.959-20.198,3.294c-2.39,0.116-4.776,0.18-7.165,0.204c-5.816,0.06-11.589-0.491-17.335-1.346
		C184.008,125.111,182.394,124.092,180.524,124.417z"/>
	</g>
	<g>
		<path class="st1" d="M179.739,149.443c1.549,0.405,2.839,1.276,4.064,2.264c-4.436,7.765-8.88,15.526-13.296,23.303
		c-0.348,0.613-0.753,0.797-1.428,0.795c-8.951-0.022-17.903-0.029-26.854-0.003c-0.935,0.003-1.188-0.142-0.94-1.16
		c1.196-4.901,2.248-9.838,3.466-14.733c0.324-1.302,0.101-1.568-1.229-1.566c-25.054,0.038-50.108,0.029-75.163,0.029
		c-13.152,0-26.305-0.02-39.457,0.031c-1.272,0.005-1.539-0.36-1.538-1.573c0.032-37.656,0.023-75.313,0.043-112.969
		c0.001-1.096-0.264-1.987-0.873-2.914C17.704,27.496,8.912,14.02,0.113,0.549C0.062,0.471,0.052,0.366,0,0.199
		c0.484-0.317,1.042-0.159,1.548-0.159C44.405,0.028,87.263,0.033,130.12,0.006c1.016-0.001,1.468,0.313,1.863,1.241
		c5.727,13.471,11.486,26.928,17.285,40.368c0.427,0.989,0.25,1.359-0.697,1.753c-2.76,1.148-2.734,1.179-3.888-1.517
		c-5.17-12.079-10.364-24.149-15.493-36.246c-0.451-1.065-1.001-1.344-2.1-1.343C87.782,4.291,48.476,4.286,9.17,4.288
		c-0.392,0-0.785,0.036-1.413,0.066c1.028,1.583,1.964,3.032,2.907,4.477c6.777,10.377,13.547,20.757,20.348,31.118
		c0.53,0.807,0.666,1.615,0.666,2.536c-0.01,36.656,0.003,73.312-0.045,109.969c-0.002,1.462,0.462,1.676,1.757,1.675
		c38.456-0.032,76.913-0.019,115.37-0.059c1.444-0.002,1.729,0.282,1.373,1.702c-1.215,4.843-2.276,9.725-3.449,14.579
		c-0.217,0.899-0.162,1.209,0.889,1.202c6.301-0.045,12.602-0.032,18.903-0.005c0.725,0.003,1.188-0.17,1.566-0.836
		c3.796-6.693,7.626-13.367,11.431-20.055C179.674,150.301,180.103,149.944,179.739,149.443z"/>
		<path class="st1" d="M70.187,44.013c0,0.997,0,1.893,0,2.789c0.001,7.651,0.005,15.302-0.005,22.953
		c-0.001,0.631,0.308,1.459-0.909,1.426c-2.099-0.057-4.2-0.028-6.3-0.008c-0.576,0.005-0.84-0.205-0.782-0.787
		c0.01-0.099,0-0.2,0-0.3c-0.001-11.002,0.006-22.003-0.017-33.005c-0.002-0.848,0.255-1.131,1.109-1.104
		c1.748,0.056,3.501,0.043,5.25-0.003c0.773-0.021,1.319,0.356,1.891,0.766c6.051,4.337,12.134,8.632,18.137,13.034
		c1.173,0.86,1.905,0.809,3.052-0.026c5.897-4.297,11.877-8.479,17.799-12.743c1.021-0.735,2.041-1.115,3.309-1.034
		c1.395,0.089,2.802,0.077,4.198,0.002c0.953-0.051,1.16,0.31,1.158,1.202c-0.027,10.952-0.03,21.903,0.004,32.855
		c0.003,0.957-0.301,1.187-1.198,1.154c-1.748-0.064-3.505-0.098-5.248,0.01c-1.28,0.079-1.687-0.238-1.674-1.62
		c0.077-8,0.037-16.002,0.037-24.003c0-0.491,0-0.982,0-1.558c-0.794,0.098-1.234,0.609-1.735,0.965
		c-5.789,4.104-11.581,8.205-17.328,12.368c-0.76,0.551-1.193,0.35-1.812-0.094c-5.767-4.136-11.546-8.256-17.331-12.368
		C71.356,44.576,70.995,44.125,70.187,44.013z"/>
		<path class="st1" d="M257.939,71.818c-8.294-0.12-15.784-1.485-22.61-5.52c-2.524-1.492-4.727-3.333-6.401-5.77
		c-3.151-4.588-3.098-9.575,0.208-14.065c3.218-4.371,7.733-6.899,12.757-8.5c11.976-3.819,23.798-3.519,35.334,1.779
		c2.143,0.984,4.063,2.334,5.848,3.878c6.673,5.776,6.783,13.98,0.202,19.889c-4.441,3.988-9.837,6.001-15.566,7.258
		C264.331,71.508,260.899,71.763,257.939,71.818z M257.076,67.014c2.246-0.05,4.195-0.135,6.114-0.487
		c4.888-0.896,9.49-2.456,13.078-6.11c4.231-4.309,4.105-9.735-0.286-13.874c-2.872-2.707-6.326-4.324-10.122-5.252
		c-8.495-2.077-16.665-1.352-24.325,3.061c-2.791,1.609-5.062,3.832-5.844,7.095c-1.103,4.608,1.078,7.952,4.569,10.581
		C245.316,65.836,251.249,66.786,257.076,67.014z"/>
		<path class="st1" d="M169.953,53.57c0.002-5.449,0.016-10.899-0.014-16.348c-0.005-0.841,0.118-1.263,1.115-1.247
		c9.195,0.149,18.402-0.352,27.584,0.369c6.306,0.495,12.318,2.061,17.557,5.823c2.603,1.869,4.729,4.177,5.831,7.25
		c1.778,4.954,0.306,10.171-3.893,13.986c-4.005,3.637-8.828,5.544-14.04,6.653c-4.282,0.911-8.621,1.087-12.973,1.101
		c-6.599,0.022-13.199-0.023-19.797,0.037c-1.149,0.01-1.411-0.321-1.399-1.427C169.984,64.369,169.952,58.969,169.953,53.57z
		 M178.113,53.604c0,3.846,0.023,7.691-0.018,11.536c-0.009,0.875,0.182,1.231,1.143,1.219c5.293-0.066,10.592,0.065,15.878-0.135
		c4.881-0.185,9.618-1.207,13.823-3.891c6.797-4.339,6.888-12.882,0.176-17.359c-3.132-2.089-6.68-3.078-10.371-3.614
		c-6.411-0.932-12.863-0.417-19.296-0.597c-1.204-0.034-1.373,0.403-1.357,1.454C178.15,46.013,178.115,49.809,178.113,53.604z"/>
		<path class="st1" d="M314.242,36.004c7.901-0.002,15.803,0.025,23.703-0.03c1.181-0.008,1.527,0.284,1.499,1.481
		c-0.074,3.169-0.016,3.172-3.22,3.173c-5.451,0.001-10.903,0.063-16.352-0.044c-1.439-0.028-1.595,0.49-1.589,1.696
		c0.043,9.101-0.008,18.203,0.066,27.304c0.011,1.377-0.377,1.704-1.673,1.615c-1.742-0.119-3.502-0.105-5.247-0.01
		c-1.106,0.06-1.309-0.357-1.305-1.362c0.034-9.201-0.013-18.403,0.054-27.604c0.01-1.348-0.351-1.643-1.652-1.627
		c-6.1,0.073-12.201,0.014-18.302,0.051c-0.93,0.006-1.289-0.162-1.283-1.207c0.021-3.433-0.028-3.434,3.398-3.434
		C299.639,36.005,306.94,36.005,314.242,36.004z"/>
		<path class="st1" d="M143.58,47.43c5.06,0.109,9.71,0.839,13.973,3.198c0.956,0.529,1.876,1.149,2.733,1.828
		c5.233,4.148,5.186,10.196-0.084,14.309c-3.924,3.062-8.486,4.34-13.35,4.718c-5.885,0.458-11.575-0.248-16.811-3.187
		c-2.336-1.312-4.394-2.966-5.549-5.494c-1.544-3.379-0.609-7.118,2.496-9.853c3.703-3.264,8.165-4.704,12.967-5.265
		C141.242,47.535,142.543,47.5,143.58,47.43z M143.619,67.396c3.591-0.054,6.728-0.728,9.483-2.66
		c3.844-2.696,4.196-6.796,0.869-9.706c-5.028-4.398-15.07-4.356-20.039,0.082c-2.85,2.546-2.918,6.166-0.108,8.756
		C136.664,66.487,140.174,67.262,143.619,67.396z"/>
		<path class="st1" d="M180.406,113.122c-1.692,0.372-3.331-0.006-4.973-0.347c-1.355-3.97-3.189-7.743-4.82-11.598
		c-3.775-8.921-7.578-17.83-11.432-26.717c-0.484-1.116-0.245-1.517,0.813-1.937c2.61-1.037,2.596-1.087,3.69,1.473
		C169.26,87.037,174.833,100.08,180.406,113.122z"/>
		<path class="st1" d="M180.524,124.417c1.87-0.325,3.484,0.693,5.235,0.996c0.624,1.572,1.249,3.144,1.874,4.716
		c-1.831,0.09-3.465-0.685-5.164-1.175C181.82,127.442,181.172,125.929,180.524,124.417z"/>
		<path class="st1" d="M186.265,138.604c1.426,0.385,2.9,0.635,4.18,1.443c-0.402,0.765-0.805,1.53-1.208,2.294
		c-1.502-0.136-2.943-0.467-4.221-1.319C185.433,140.216,185.849,139.41,186.265,138.604z"/>
	</g>
</svg>
